<svg xmlns="http://www.w3.org/2000/svg" viewBox="0 0 504.004 504.004">
<path d="M452.706,108.828c-0.068-0.348-0.164-0.672-0.272-1.004c-0.056-0.152-0.076-0.316-0.136-0.464 c-0.148-0.36-0.34-0.696-0.54-1.024c-0.064-0.108-0.104-0.224-0.18-0.332c-0.284-0.428-0.612-0.828-0.976-1.192L348.186,2.396 c-0.36-0.364-0.76-0.692-1.192-0.98c-0.108-0.072-0.224-0.112-0.332-0.176c-0.328-0.2-0.66-0.396-1.02-0.548 c-0.152-0.06-0.312-0.088-0.468-0.144c-0.328-0.116-0.656-0.276-1-0.348c-0.508-0.104-1.032-0.2-1.56-0.2h-267.8 C61.786,0,51.19,10.684,51.19,23.712v456.752c0,13.028,10.596,23.54,23.624,23.54H429.29c13.028,0,23.524-10.512,23.524-23.54 v-370.08C452.814,109.86,452.81,109.336,452.706,108.828z M437.066,480.46c0,4.34-3.428,7.788-7.772,7.788H74.814 c-4.344,0-7.876-3.448-7.876-7.788V23.712c0-4.344,3.532-7.96,7.876-7.96H334.69V84.14c0,18.816,15.36,33.988,34.172,33.988 h68.204V480.46z"/>
<path d="M339.622,155.588c-1.864-1.5-4.312-2.068-6.636-1.548L191.17,185.56c-3.6,0.8-6.104,3.996-6.104,7.688v29.12v0.016 v114.524c-3.936-3.812-12.532-6.04-19.852-6.04c-19.592,0-35.564,15.94-35.564,35.536s15.92,35.54,35.516,35.54 c19.248,0,34.992-15.4,35.54-34.52c0.016-0.172,0.108-0.336,0.108-0.512V228.58l126-28.012v105.136 c-5.66-3.812-12.468-6.04-19.792-6.04c-19.588,0-35.528,15.936-35.528,35.536c0,19.592,15.936,35.536,35.528,35.536 c18.816,0,34.228-14.708,35.424-33.228c0.056-0.384,0.116-0.756,0.116-1.16V190.644v-0.028h0.004v-28.888 C342.566,159.34,341.482,157.08,339.622,155.588z"/>
</svg>