<svg class="reload" xmlns="http://www.w3.org/2000/svg" viewBox="0 0 254.398 254.398" >
<style>
  .reload .arrow{
    transform-origin:127.199px 127.199px;
    animation: reload-roll 1s linear infinite;
  }
  @keyframes reload-roll {
      0% {transform:rotate(0deg);}
    100% {transform:rotate(360deg);}
  }
</style>
<path class="arrow" d="M254.398,82.007l-28.133,62.972l-62.972-28.134l29.508-11.284c-9.065-26.295-34.042-45.245-63.377-45.245 c-28.157,0-53.501,17.781-63.065,44.246L32.284,92.248c14.732-40.772,53.771-68.166,97.141-68.166 c44.758,0,82.949,28.625,97.246,68.527L254.398,82.007z M124.974,230.316c43.371,0,82.409-27.394,97.141-68.167l-34.076-12.313 c-9.563,26.465-34.906,44.246-63.064,44.246c-29.335,0-54.312-18.95-63.377-45.245l29.508-11.284L28.133,109.42L0,172.392 l27.728-10.603C42.024,201.691,80.216,230.316,124.974,230.316z"/>
</svg>