<?xml version="1.0" encoding="iso-8859-1"?>
<!-- Generator: Adobe Illustrator 19.0.0, SVG Export Plug-In . SVG Version: 6.00 Build 0)  -->
<svg version="1.1" id="Layer_1" xmlns="http://www.w3.org/2000/svg" xmlns:xlink="http://www.w3.org/1999/xlink" x="0px" y="0px"
	 viewBox="0 0 512 512" style="enable-background:new 0 0 512 512;" xml:space="preserve">
<path id="SVGCleanerId_0" style="fill:#201F2E;" d="M256,512c-7.92,0-14.342-6.421-14.342-14.342v-64.977
	c0-7.921,6.422-14.342,14.342-14.342c7.92,0,14.342,6.421,14.342,14.342v64.977C270.342,505.579,263.92,512,256,512z"/>
<path id="SVGCleanerId_1" style="fill:#201F2E;" d="M256,93.66c-7.92,0-14.342-6.421-14.342-14.342V14.342
	C241.658,6.421,248.08,0,256,0c7.92,0,14.342,6.421,14.342,14.342v64.977C270.342,87.239,263.92,93.66,256,93.66z"/>
<g>
	<path style="fill:#201F2E;" d="M135.157,479.626c-2.432,0-4.898-0.62-7.157-1.923c-6.86-3.96-9.21-12.731-5.249-19.591
		l32.488-56.271c3.961-6.86,12.728-9.209,19.591-5.249c6.86,3.96,9.21,12.731,5.249,19.591l-32.488,56.271
		C144.935,477.053,140.113,479.626,135.157,479.626z"/>
	<path style="fill:#201F2E;" d="M344.326,117.334c-2.432,0-4.898-0.62-7.157-1.923c-6.86-3.96-9.21-12.731-5.249-19.591
		l32.488-56.271c3.961-6.86,12.728-9.21,19.591-5.249c6.86,3.96,9.21,12.731,5.249,19.591l-32.488,56.271
		C354.103,114.761,349.283,117.334,344.326,117.334z"/>
	<path style="fill:#201F2E;" d="M46.731,391.172c-4.958,0-9.777-2.571-12.434-7.172c-3.961-6.86-1.611-15.631,5.249-19.591
		l56.271-32.488c6.86-3.961,15.631-1.609,19.591,5.249c3.961,6.86,1.611,15.631-5.249,19.591l-56.271,32.488
		C51.63,390.553,49.163,391.172,46.731,391.172z"/>
	<path style="fill:#201F2E;" d="M409.025,182.002c-4.958,0-9.777-2.571-12.434-7.172c-3.961-6.86-1.611-15.631,5.249-19.591
		l56.271-32.488c6.86-3.96,15.63-1.609,19.591,5.249c3.961,6.86,1.611,15.631-5.249,19.591l-56.271,32.488
		C413.924,181.383,411.459,182.002,409.025,182.002z"/>
	<path style="fill:#201F2E;" d="M79.318,270.342H14.342C6.422,270.342,0,263.921,0,256s6.422-14.342,14.342-14.342h64.977
		c7.92,0,14.342,6.421,14.342,14.342S87.238,270.342,79.318,270.342z"/>
	<path style="fill:#201F2E;" d="M497.658,270.342h-64.977c-7.92,0-14.342-6.421-14.342-14.342s6.422-14.342,14.342-14.342h64.977
		c7.92,0,14.342,6.421,14.342,14.342S505.578,270.342,497.658,270.342z"/>
	<path style="fill:#201F2E;" d="M102.975,182.002c-2.432,0-4.898-0.62-7.157-1.923l-56.273-32.488
		c-6.86-3.96-9.21-12.731-5.249-19.591c3.96-6.86,12.73-9.21,19.591-5.249l56.271,32.488c6.86,3.96,9.21,12.731,5.249,19.591
		C112.753,179.431,107.932,182.002,102.975,182.002z"/>
	<path style="fill:#201F2E;" d="M465.269,391.172c-2.432,0-4.898-0.62-7.156-1.923l-56.271-32.488
		c-6.86-3.96-9.21-12.731-5.249-19.591c3.96-6.858,12.728-9.21,19.591-5.249l56.271,32.488c6.86,3.96,9.21,12.731,5.249,19.591
		C475.047,388.601,470.225,391.172,465.269,391.172z"/>
	<path style="fill:#201F2E;" d="M167.674,117.334c-4.958,0-9.777-2.571-12.434-7.172l-32.488-56.273
		c-3.961-6.86-1.611-15.631,5.249-19.591c6.86-3.961,15.63-1.611,19.591,5.249l32.488,56.271c3.961,6.86,1.611,15.631-5.249,19.591
		C172.573,116.713,170.106,117.334,167.674,117.334z"/>
	<path style="fill:#201F2E;" d="M376.844,479.626c-4.958,0-9.777-2.571-12.434-7.172l-32.488-56.271
		c-3.961-6.86-1.611-15.631,5.249-19.591c6.861-3.961,15.63-1.609,19.591,5.249l32.488,56.271c3.961,6.86,1.611,15.631-5.249,19.591
		C381.743,479.007,379.276,479.626,376.844,479.626z"/>
</g>
<g>
	<path id="SVGCleanerId_1_1_" style="fill:#201F2E;" d="M256,93.66c-7.92,0-14.342-6.421-14.342-14.342V14.342
		C241.658,6.421,248.08,0,256,0c7.92,0,14.342,6.421,14.342,14.342v64.977C270.342,87.239,263.92,93.66,256,93.66z"/>
</g>
<g>
	<path id="SVGCleanerId_0_1_" style="fill:#201F2E;" d="M256,512c-7.92,0-14.342-6.421-14.342-14.342v-64.977
		c0-7.921,6.422-14.342,14.342-14.342c7.92,0,14.342,6.421,14.342,14.342v64.977C270.342,505.579,263.92,512,256,512z"/>
</g>
<g>
</g>
<g>
</g>
<g>
</g>
<g>
</g>
<g>
</g>
<g>
</g>
<g>
</g>
<g>
</g>
<g>
</g>
<g>
</g>
<g>
</g>
<g>
</g>
<g>
</g>
<g>
</g>
<g>
</g>
</svg>
