<?xml version="1.0" ?><svg height="20" version="1.1" viewBox="0 0 20 20" width="20" xmlns="http://www.w3.org/2000/svg"><g id="layer1"><path d="M 3 0 L 3 20 L 17 20 L 17 5 L 17 4 L 13 0 L 12 0 L 10 0 L 10 1 L 12 1 L 12 4 L 12 5 L 16 5 L 16 19 L 4 19 L 4 1 L 6 1 L 6 0 L 3 0 z M 8 0 L 8 1 L 9 1 L 9 0 L 8 0 z M 8 1 L 7 1 L 7 2 L 8 2 L 8 1 z M 8 2 L 8 3 L 9 3 L 9 2 L 8 2 z M 8 3 L 7 3 L 7 4 L 8 4 L 8 3 z M 8 4 L 8 5 L 9 5 L 9 4 L 8 4 z M 8 5 L 7 5 L 7 6 L 8 6 L 8 5 z M 8 6 L 8 7 L 9 7 L 9 6 L 8 6 z M 8 7 L 7 7 L 7 8 L 8 8 L 8 7 z M 8 8 L 8 9 L 9 9 L 9 8 L 8 8 z M 8 9 L 7 9 L 7 10 L 8 10 L 8 9 z M 13 1.3535156 L 15.646484 4 L 13 4 L 13 1.3535156 z M 7 11 L 6 15 L 6 18 L 10 18 L 10 15 L 9 11 L 7 11 z M 7 16 L 9 16 L 9 17 L 7 17 L 7 16 z " style="fill:#222222; fill-opacity:1; stroke:none; stroke-width:0px;"/></g></svg>