<svg viewBox="0 0 510.002 510.002" xmlns="http://www.w3.org/2000/svg">
<path d="m379.311 227.111c0-37.283-16.393-70.804-42.342-93.751l76.087-47.95v-85.41h-29.807v68.962l-73.255 46.166c-16.819-8.42-35.782-13.169-55.836-13.169-20.436 0-39.743 4.925-56.799 13.649l-70.609-46.456v-69.152h-29.806v85.22l73.879 48.608c-25.645 22.934-41.815 56.254-41.815 93.284v5.867h250.304v-5.868z"/>
<path d="m129.007 262.785v41.307h-61.397v29.808h61.397v26.4c0 4.285.217 8.521.641 12.696h-62.038v29.807h68.833c3.782 10.443 8.918 20.243 15.192 29.189l-53.821 57.676 21.793 20.334 51.999-55.724c18.531 16.298 41.902 27.212 67.649 30.281v-221.774z"/>
<path d="m269.062 262.785v221.775c25.713-3.065 49.057-13.954 67.576-30.217l49.515 53.226 21.823-20.302-51.349-55.198c6.299-8.967 11.454-18.793 15.247-29.267h70.516v-29.807h-63.719c.422-4.176.641-8.411.641-12.696v-26.4h63.08v-29.807h-63.08v-41.307z"/>
<path d="m379.311 232.978h63.08v29.807h-63.08z"/>
<path d="m67.61 232.978h61.397v29.807h-61.397z"/>
</svg>