<svg version="1.1" xmlns="http://www.w3.org/2000/svg" viewBox="0 0 512 512" >
	<path d="M389.732,62.933c-15.548,0-30.36,3.09-43.955,8.554C325.476,29.238,282.407,0,232.4,0
		c-67.165,0-121.883,52.649-125.517,118.908c-3.982-0.533-8.014-0.91-12.148-0.91c-49.961,0-90.465,40.497-90.465,90.466
		c0,49.968,40.504,90.465,90.465,90.465h144.455v113.197c5.371-1.507,10.992-2.343,16.782-2.343c5.789,0,11.41,0.836,16.782,2.343
		V298.93h116.978c65.17,0,117.999-52.829,117.999-117.998C507.731,115.762,454.901,62.933,389.732,62.933z M389.732,265.366H94.735
		c-31.376,0-56.901-25.526-56.901-56.901c0-31.376,25.526-56.902,56.901-56.902c2.123,0,4.569,0.197,7.699,0.615l35.977,4.81
		l1.987-36.243c2.68-48.888,43.094-87.18,92.002-87.18c35.723,0,67.574,20.101,83.123,52.461l13.615,28.327l29.16-11.726
		c10.12-4.065,20.695-6.13,31.434-6.13c46.556,0,84.435,37.874,84.435,84.435C474.167,227.492,436.288,265.366,389.732,265.366z"></path>
	<path d="M256,431.589c-22.207,0-40.21,17.994-40.21,40.202c0,22.207,18.003,40.21,40.21,40.21
		c22.203,0,40.206-18.003,40.206-40.21C296.205,449.583,278.203,431.589,256,431.589z"></path>
	<path d="M89.577,455.008v33.564h106.736c-1.512-5.367-2.352-10.989-2.352-16.782c0-5.793,0.84-11.415,2.352-16.782
		H89.577z"></path>
	<path d="M318.064,471.79c0,5.793-0.84,11.415-2.348,16.782h106.732v-33.564H315.716
		C317.224,460.375,318.064,465.997,318.064,471.79z"></path>
</svg>
