<svg viewBox="0 0 512 512" xmlns="http://www.w3.org/2000/svg">
<circle cx="387" cy="331" r="25"/>
<path d="m442 441c0-30.327-24.673-55-55-55s-55 24.673-55 55v17.229c16.607 8.172 35.275 12.771 55 12.771s38.393-4.599 55-12.771z"/>
<path d="m387 221c-68.925 0-125 56.075-125 125 0 36.17 15.448 68.794 40.085 91.64 1.187-30.35 18.357-56.652 43.315-70.723-8.338-9.644-13.4-22.197-13.4-35.917 0-30.327 24.673-55 55-55s55 24.673 55 55c0 13.72-5.062 26.273-13.4 35.917 24.958 14.071 42.128 40.373 43.315 70.723 24.637-22.846 40.085-55.47 40.085-91.64 0-68.925-56.075-125-125-125z"/>
<path d="m50 246c-27.57 0-50-22.43-50-50s22.43-50 50-50 50 22.43 50 50-22.43 50-50 50z"/>
<path d="m119.37 156.231c4.954 8.607 8.356 18.21 9.813 28.438l131.126-56.52c-6.788-7.435-11.995-16.334-15.091-26.163z"/>
<path d="m129.183 207.331c-1.457 10.228-4.859 19.831-9.813 28.438l123.49 53.229c3.729-9.395 8.351-18.342 13.761-26.736z"/>
<path d="m312 121c-22.056 0-40-17.944-40-40s17.944-40 40-40 40 17.944 40 40-17.944 40-40 40z"/>
</svg>