<svg height="512pt" viewBox="0 0 512 512" width="512pt" xmlns="http://www.w3.org/2000/svg"><path d="m441.597656 373.371094c-2.890625 0-5.738281.171875-8.539062.507812l-28.171875-88.058594c34.460937-15.238281 58.515625-49.3125 58.515625-88.808593 0-53.660157-44.394532-97.316407-98.964844-97.316407-54.566406 0-98.960938 43.65625-98.960938 97.316407 0 11.929687 2.195313 23.363281 6.207032 33.9375l-50.882813 28c-18.628906-29.199219-49.953125-49.816407-86.3125-54.3125v-35.800781c40.550781-7.007813 71.460938-41.90625 71.460938-83.777344 0-46.902344-38.789063-85.058594-86.464844-85.058594s-86.460937 38.15625-86.460937 85.058594c0 41.871094 30.910156 76.769531 71.460937 83.777344v35.800781c-58.828125 7.273437-104.484375 56.753906-104.484375 116.511719 0 64.753906 53.601562 117.4375 119.484375 117.4375 65.886719 0 119.488281-52.683594 119.488281-117.4375 0-12.175782-1.898437-23.925782-5.414062-34.976563l53.007812-29.171875c18.132813 22.710938 46.300782 37.324219 77.871094 37.324219 3.875 0 7.703125-.222657 11.464844-.648438l28.792968 90c-20.089843 12.222657-33.5 34.101563-33.5 59.011719 0 38.21875 31.582032 69.3125 70.402344 69.3125 38.820313 0 70.402344-31.09375 70.402344-69.3125 0-38.222656-31.582031-69.316406-70.402344-69.316406zm-378.574218-288.3125c0-30.359375 25.328124-55.058594 56.460937-55.058594s56.464844 24.699219 56.464844 55.058594-25.332031 55.058594-56.464844 55.058594-56.460937-24.699219-56.460937-55.058594zm56.460937 323.527344c-49.339844 0-89.484375-39.226563-89.484375-87.4375 0-48.210938 40.144531-87.433594 89.484375-87.433594 49.34375 0 89.488281 39.222656 89.488281 87.433594 0 48.210937-40.144531 87.4375-89.488281 87.4375zm175.992187-211.574219c0-37.117188 30.9375-67.316407 68.960938-67.316407 38.027344 0 68.964844 30.199219 68.964844 67.316407 0 37.117187-30.9375 67.3125-68.964844 67.3125-38.023438 0-68.960938-30.195313-68.960938-67.3125zm146.121094 284.988281c-22.277344 0-40.402344-17.636719-40.402344-39.3125 0-21.679688 18.125-39.316406 40.402344-39.316406s40.402344 17.636718 40.402344 39.316406c0 21.675781-18.125 39.3125-40.402344 39.3125zm0 0"/></svg>