<svg xmlns="http://www.w3.org/2000/svg" version="1.1" viewBox="0 0 115 115">
<g transform="translate(8.1,7.5)">
<path d="M 79.9,97.5 H 20.1 C 13.4,97.5 7.9,92 7.9,85.3 V 14.7 C 7.9,8 13.4,2.5 20.1,2.5 H 79.8 C 86.5,2.5 92,8 92,14.7 V 85.3 C 92.1,92 86.6,97.5 79.9,97.5 Z M 20.1,5.2 c -5.2,0 -9.5,4.3 -9.5,9.5 v 70.6 c 0,5.2 4.3,9.5 9.5,9.5 h 59.7 c 5.2,0 9.5,-4.3 9.5,-9.5 V 14.7 C 89.3,9.5 85,5.2 79.8,5.2 Z" />
</g>
<g transform="translate(8.1,7.5)">
<path d="M 79.2,28.3 H 35.9 c -0.6,0 -1,-0.5 -1,-1 v -0.4 c 0,-0.6 0.5,-1 1,-1 h 43.2 c 0.6,0 1,0.5 1,1 v 0.4 c 0.1,0.5 -0.4,1 -0.9,1 z" />
<path d="M 79,28.7 H 36.1 c -0.9,0 -1.7,-0.7 -1.7,-1.7 0,-0.9 0.7,-1.7 1.7,-1.7 H 79 c 0.9,0 1.7,0.7 1.7,1.7 -0.1,1 -0.8,1.7 -1.7,1.7 z M 36.1,26.3 c -0.4,0 -0.8,0.3 -0.8,0.8 0,0.4 0.3,0.8 0.8,0.8 H 79 c 0.4,0 0.8,-0.3 0.8,-0.8 0,-0.4 -0.3,-0.8 -0.8,-0.8 z" />
</g>
<g transform="translate(8.1,7.5)">
<path d="M 79.2,51.2 H 35.9 c -0.6,0 -1,-0.5 -1,-1 v -0.4 c 0,-0.6 0.5,-1 1,-1 h 43.2 c 0.6,0 1,0.5 1,1 v 0.4 c 0.1,0.6 -0.4,1 -0.9,1 z" />
<path d="M 79,51.7 H 36.1 c -0.9,0 -1.7,-0.7 -1.7,-1.7 0,-1 0.7,-1.7 1.7,-1.7 H 79 c 0.9,0 1.7,0.7 1.7,1.7 0,1 -0.8,1.7 -1.7,1.7 z M 36.1,49.2 c -0.4,0 -0.8,0.3 -0.8,0.8 0,0.5 0.3,0.8 0.8,0.8 H 79 c 0.4,0 0.8,-0.3 0.8,-0.8 0,-0.5 -0.3,-0.8 -0.8,-0.8 z" />
</g>
<g transform="translate(8.1,7.5)">
<path d="M 79.2,74.1 H 35.9 c -0.6,0 -1,-0.5 -1,-1 v -0.4 c 0,-0.6 0.5,-1 1,-1 h 43.2 c 0.6,0 1,0.5 1,1 v 0.4 c 0.1,0.6 -0.4,1 -0.9,1 z" />
<path d="M 79,74.6 H 36.1 c -0.9,0 -1.7,-0.7 -1.7,-1.7 0,-0.9 0.7,-1.7 1.7,-1.7 H 79 c 0.9,0 1.7,0.7 1.7,1.7 -0.1,0.9 -0.8,1.7 -1.7,1.7 z M 36.1,72.2 c -0.4,0 -0.8,0.3 -0.8,0.8 0,0.5 0.3,0.8 0.8,0.8 H 79 c 0.4,0 0.8,-0.3 0.8,-0.8 0,-0.5 -0.3,-0.8 -0.8,-0.8 z" />
</g>
<g transform="translate(8.1,7.5)">
<path d="M 25.3,33.6 H 25 c -3.6,0 -6.5,-2.9 -6.5,-6.5 0,-3.6 2.9,-6.5 6.5,-6.5 h 0.3 c 3.6,0 6.5,2.9 6.5,6.5 0,3.6 -3,6.5 -6.5,6.5 z M 25,23.3 c -2.1,0 -3.8,1.7 -3.8,3.8 0,2.1 1.7,3.8 3.8,3.8 h 0.3 c 2.1,0 3.8,-1.7 3.8,-3.8 0,-2.1 -1.7,-3.8 -3.8,-3.8 z" />
</g>
<g transform="translate(8.1,7.5)">
<path d="M 25.3,56.5 H 25 c -3.6,0 -6.5,-2.9 -6.5,-6.5 0,-3.6 2.9,-6.5 6.5,-6.5 h 0.3 c 3.6,0 6.5,2.9 6.5,6.5 0,3.6 -3,6.5 -6.5,6.5 z M 25,46.2 c -2.1,0 -3.8,1.7 -3.8,3.8 0,2.1 1.7,3.8 3.8,3.8 h 0.3 c 2.1,0 3.8,-1.7 3.8,-3.8 0,-2.1 -1.7,-3.8 -3.8,-3.8 z" />
</g>
<g transform="translate(8.1,7.5)">
<path d="M 25.3,79.4 H 25 c -3.6,0 -6.5,-2.9 -6.5,-6.5 0,-3.6 2.9,-6.5 6.5,-6.5 h 0.3 c 3.6,0 6.5,2.9 6.5,6.5 0,3.6 -3,6.5 -6.5,6.5 z M 25,69.2 c -2.1,0 -3.8,1.7 -3.8,3.8 0,2.1 1.7,3.8 3.8,3.8 h 0.3 c 2.1,0 3.8,-1.7 3.8,-3.8 0,-2.1 -1.7,-3.8 -3.8,-3.8 z" />
</g>
</svg>