<svg viewBox="0 0 512 512" xmlns="http://www.w3.org/2000/svg">
<path d="m413.334 104.889c-29.824 0-56.599 13.303-74.706 34.284l-90.728-50.405c1.214-5.25 1.878-10.709 1.878-16.324 0-39.946-32.498-72.444-72.444-72.444s-72.445 32.498-72.445 72.444 32.499 72.444 72.445 72.444c19.933 0 38.009-8.094 51.121-21.165l90.699 50.389c-2.914 9.302-4.487 19.191-4.487 29.442 0 12.319 2.276 24.115 6.419 34.998l-102.986 65.536c-22.89-25.671-56.192-41.867-93.211-41.867-68.864.001-124.889 56.025-124.889 124.889s56.025 124.89 124.889 124.89 124.889-56.025 124.889-124.89c0-17.502-3.626-34.172-10.155-49.307l102.98-65.532c17.94 18.46 43.017 29.95 70.73 29.95 54.404 0 98.666-44.262 98.666-98.667.001-54.404-44.261-98.665-98.665-98.665zm-236 0c-17.89 0-32.445-14.555-32.445-32.444s14.555-32.445 32.445-32.445 32.444 14.555 32.444 32.444-14.554 32.445-32.444 32.445zm-52.445 367.111c-46.808 0-84.889-38.081-84.889-84.89 0-46.808 38.081-84.889 84.889-84.889s84.889 38.081 84.889 84.889c0 46.809-38.081 84.89-84.889 84.89zm288.445-209.778c-32.349 0-58.667-26.318-58.667-58.667s26.318-58.666 58.667-58.666 58.666 26.317 58.666 58.666-26.317 58.667-58.666 58.667z"/>
</svg>