<svg viewBox="0 -3 512.00101 512" xmlns="http://www.w3.org/2000/svg">
<path d="m393.320312 269.097656c-54.910156 0-101.21875 37.484375-114.707031 88.207032l-54.238281-35.253907c8.296875-16.195312 12.984375-34.535156 12.984375-53.945312 0-17.460938-3.792969-34.050781-10.59375-48.992188l66.78125-36.238281c21.148437 32.757812 57.96875 54.484375 99.773437 54.484375 65.441407 0 118.679688-53.238281 118.679688-118.679687 0-65.4375-53.238281-118.679688-118.679688-118.679688-65.4375 0-118.679687 53.238281-118.679687 118.679688 0 12.882812 2.074219 25.292968 5.886719 36.917968l-69.695313 37.816406c-21.777343-26.816406-54.996093-43.988281-92.152343-43.988281-65.441407 0-118.679688 53.238281-118.679688 118.679688 0 65.4375 53.238281 118.675781 118.679688 118.675781 35.199218 0 66.863281-15.410156 88.617187-39.832031l67.382813 43.800781c1.585937 64.070312 54.195312 115.707031 118.640624 115.707031 65.441407 0 118.679688-53.242187 118.679688-118.679687 0-65.441406-53.238281-118.679688-118.679688-118.679688zm-56.878906-118.261718c0-20.6875 11.101563-38.824219 27.65625-48.777344-3.800781-5.625-6.023437-12.402344-6.023437-19.6875 0-19.433594 15.8125-35.246094 35.246093-35.246094 19.433594 0 35.246094 15.8125 35.246094 35.246094 0 7.285156-2.222656 14.0625-6.023437 19.6875 16.554687 9.953125 27.65625 28.089844 27.65625 48.777344v10.5c0 8.335937-6.757813 15.09375-15.09375 15.09375h-83.570313c-8.335937 0-15.09375-6.757813-15.09375-15.09375zm-275.59375 161.03125v-10.738282c0-21.308594 11.59375-39.949218 28.792969-49.980468-3.566406-5.449219-5.648437-11.953126-5.648437-18.941407 0-19.125 15.558593-34.6875 34.6875-34.6875 19.125 0 34.6875 15.5625 34.6875 34.6875 0 6.988281-2.085938 13.492188-5.652344 18.941407 17.203125 10.03125 28.792968 28.671874 28.792968 49.980468v10.738282c0 8.335937-6.757812 15.09375-15.09375 15.09375h-85.472656c-8.335937 0-15.09375-6.757813-15.09375-15.09375zm275.59375 118.566406v-10.5c0-20.492188 10.894532-38.480469 27.191406-48.496094-3.511718-5.480469-5.558593-11.984375-5.558593-18.960938 0-19.433593 15.8125-35.246093 35.246093-35.246093 19.433594 0 35.246094 15.8125 35.246094 35.246093 0 6.976563-2.046875 13.480469-5.558594 18.960938 16.296876 10.015625 27.191407 28.003906 27.191407 48.496094v10.5c0 8.335937-6.757813 15.09375-15.09375 15.09375h-83.570313c-8.335937 0-15.09375-6.757813-15.09375-15.09375zm0 0"/>
</svg>