<svg version="1.1" xmlns="http://www.w3.org/2000/svg"  viewBox="0 0 512 512" >
	<path d="M512,292.408c0.022-16.496-6.344-33.148-18.944-45.726L273.612,27.248
		C262.295,15.921,247.17,9.214,231.178,8.391L67.942,0.093h0.066c-1.043-0.055-2.151-0.088-3.337-0.088
		C47.57-0.006,31.106,6.767,18.934,18.95C6.772,31.112,0,47.576,0,64.676c0,1.064,0.033,2.162,0.088,3.282l8.298,163.225
		c0.834,16.003,7.54,31.106,18.856,42.432l27.215,27.21c-6.52,30.448-9.61,58.108-9.61,82.178
		c0.034,33.06,5.313,59.644,14.544,79.006c4.643,9.681,10.318,17.627,17.288,23.444c6.914,5.818,15.464,9.395,24.432,9.374
		c8.517,0.011,16.859-3.162,24.213-8.572c7.409-5.433,14.072-13.073,20.196-22.863c8.803-14.181,14.576-32.335,18.659-52.839
		l82.518,82.518c12.579,12.59,29.218,18.945,45.704,18.923c16.486,0.022,33.126-6.344,45.704-18.923l154.96-154.949l-11.92-11.919
		l11.931,11.908C505.656,325.534,512.022,308.894,512,292.408z M143.798,397.822c-3.722,22.61-9.726,41.577-17.342,53.673
		c-4.984,7.991-10.01,13.435-14.401,16.618c-4.423,3.217-7.958,4.215-10.943,4.237c-3.128-0.032-6.256-1.064-10.044-4.171
		c-5.63-4.599-11.908-14.268-16.387-28.735c-4.51-14.445-7.364-33.499-7.354-56.439c-0.004-18.582,1.938-39.789,6.158-63.146
		l71.246,71.246C144.412,393.332,144.16,395.659,143.798,397.822z M469.227,314.272l-154.961,154.96
		c-6.08,6.059-13.906,9.034-21.864,9.056c-7.969-0.021-15.784-2.996-21.864-9.056L169.871,368.571
		c1.23-15.104,1.866-30.777,1.872-46.747c-0.011-38.636-3.282-78.511-8.474-113.042c-2.332-15.466-5.066-29.766-8.073-42.544
		c2.14-1.426,4.176-3.073,6.065-4.961c15.366-15.366,15.366-40.26,0-55.638c-15.367-15.367-40.261-15.367-55.628,0
		c-15.366,15.378-15.366,40.271,0,55.638c7.727,7.727,17.858,11.548,27.973,11.504c9.039,38.931,15.679,95.557,15.658,149.044
		c0,8.649-0.242,17.144-0.598,25.542l-97.584-97.588c-5.411-5.412-8.626-12.644-9.022-20.318L33.762,66.235l-0.044-1.559
		c0.011-8.21,3.238-16.058,9.066-21.886c5.84-5.839,13.698-9.066,21.886-9.066l1.493,0.044l163.302,8.309
		c7.672,0.383,14.895,3.6,20.306,9.011l219.456,219.455c6.058,6.059,9.033,13.874,9.054,21.864
		c-0.022,7.958-2.98,15.772-9.05,21.875L469.227,314.272z" ></path>
</svg>
