<?xml version="1.0" encoding="UTF-8" standalone="no"?>
<svg
   xmlns:dc="http://purl.org/dc/elements/1.1/"
   xmlns:cc="http://creativecommons.org/ns#"
   xmlns:rdf="http://www.w3.org/1999/02/22-rdf-syntax-ns#"
   xmlns:svg="http://www.w3.org/2000/svg"
   xmlns="http://www.w3.org/2000/svg"
   xmlns:sodipodi="http://sodipodi.sourceforge.net/DTD/sodipodi-0.dtd"
   xmlns:inkscape="http://www.inkscape.org/namespaces/inkscape"
   style="enable-background:new 0 0 512 512;"
   version="1.1"
   viewBox="0 0 512 512"
   xml:space="preserve"
   id="svg22"
   sodipodi:docname="icon_line.svg"
   inkscape:version="0.92.2 5c3e80d, 2017-08-06"><metadata
     id="metadata28"><rdf:RDF><cc:Work
         rdf:about=""><dc:format>image/svg+xml</dc:format><dc:type
           rdf:resource="http://purl.org/dc/dcmitype/StillImage" /></cc:Work></rdf:RDF></metadata><defs
     id="defs26" /><sodipodi:namedview
     pagecolor="#ffffff"
     bordercolor="#666666"
     borderopacity="1"
     objecttolerance="10"
     gridtolerance="10"
     guidetolerance="10"
     inkscape:pageopacity="0"
     inkscape:pageshadow="2"
     inkscape:window-width="877"
     inkscape:window-height="571"
     id="namedview24"
     showgrid="false"
     inkscape:zoom="0.4609375"
     inkscape:cx="203.9322"
     inkscape:cy="256"
     inkscape:window-x="0"
     inkscape:window-y="0"
     inkscape:window-maximized="0"
     inkscape:current-layer="svg22" /><style
     type="text/css"
     id="style2">
	.st0{display:none;fill:#FEFEFE;}
	.st1{fill:#00C200;}
	.st2{fill:#FFFFFF;}
	.st3{fill:#00C300;}
</style><g
     id="Layer_1" /><g
     id="Layer_2"
     transform="matrix(1.4023221,0,0,1.4023221,-103.2962,-103.17551)"
     style="stroke-width:0.71310294"><g
       id="g19"
       style="stroke-width:0.71310294"><path
         class="st0"
         d="m 0.4,512.4 c 0,-170.7 0,-341.3 0,-512 170.7,0 341.3,0 512,0 0,170.7 0,341.3 0,512 -170.6,0 -341.3,0 -512,0 z"
         id="path5"
         inkscape:connector-curvature="0"
         style="display:none;fill:#fefefe;stroke-width:0.71310294" /><path
         class="st1"
         d="m 256.7,434.4 c -38,0 -76.1,0 -114.1,0 -11.7,0 -22.5,-3.3 -32.5,-9.3 C 98.9,418.3 90.5,408.8 84.9,397 82,390.9 80.2,384.5 79.3,377.9 c -0.4,-2.8 -0.5,-5.6 -0.5,-8.5 0,-75.9 0,-151.9 0,-227.8 0,-8.8 2.1,-17.2 5.8,-25.3 3.2,-7 7.6,-13.3 13.1,-18.7 8.8,-8.7 19.3,-14.6 31.4,-17.4 5.1,-1.1 10.2,-1.7 15.4,-1.7 75.2,0 150.4,0 225.7,0 7,0 13.8,1.1 20.4,3.4 8.2,2.8 15.6,7.1 22.1,12.9 10.3,9.2 17.1,20.5 20.3,34 1.1,4.6 1.7,9.3 1.7,14.1 0,76.4 0,152.9 -0.1,229.3 0,8.3 -2.1,16.3 -5.5,23.8 -3.2,7.1 -7.6,13.5 -13,19 -5.7,5.8 -12.2,10.3 -19.6,13.7 -7,3.1 -14.3,5 -21.9,5.6 -0.8,0.1 -1.7,0.1 -2.6,0.1 -38.4,0 -76.9,0 -115.3,0 z"
         id="path7"
         inkscape:connector-curvature="0"
         style="fill:#00c200;stroke-width:0.71310294" /><path
         class="st2"
         d="m 385.5,238.2 c 0.3,10.5 -1.2,20.7 -4.7,30.6 -3.9,11 -9.8,20.8 -17.1,29.8 -9.8,12.3 -21.2,22.9 -33.4,32.8 -20.4,16.5 -42,31.4 -64.8,44.5 -3.4,2 -6.9,3.9 -10.7,5.3 -1.6,0.6 -3.2,1.1 -4.9,1.3 -2.9,0.4 -4.8,-0.9 -5.3,-3.8 -0.2,-0.9 -0.1,-1.8 0.1,-2.8 0.7,-4.3 1.4,-8.5 2.1,-12.8 0.5,-3.2 0.7,-6.3 0.3,-9.5 -0.3,-2.8 -1.6,-4.8 -4,-6.2 -2.7,-1.5 -5.6,-2.5 -8.6,-3 -11,-1.5 -21.8,-4.1 -32.2,-8 -16.2,-6 -30.8,-14.5 -43.5,-26.3 -11,-10.2 -19.6,-22 -25.4,-35.9 -3.6,-8.7 -5.7,-17.8 -6.4,-27.3 -1.4,-20.6 4.2,-39.2 15.5,-56.2 10,-15 23.3,-26.5 38.8,-35.5 15,-8.7 31.1,-14.2 48.1,-17.1 7.4,-1.3 14.8,-2.1 22.2,-2.2 7,-0.2 14,0.1 21,0.9 9.6,1.1 19.1,2.9 28.4,5.7 19.8,6 37.6,15.6 52.8,29.8 9.1,8.5 16.6,18.1 22.1,29.3 5.5,10.9 8.7,22.5 9.3,34.7 0.2,0.6 0.3,1.2 0.3,1.9 z"
         id="path9"
         inkscape:connector-curvature="0"
         style="fill:#ffffff;stroke-width:0.71310294" /><path
         class="st3"
         d="m 280.7,248.7 c 0,-1.2 0,-1.9 0,-2.6 0,-9.6 0,-19.2 0,-28.8 0,-0.6 0,-1.1 0,-1.7 0.1,-1.7 1,-2.7 2.6,-2.7 3,-0.1 6,-0.1 9,0 1.6,0 2.4,1 2.5,2.6 0,0.4 0,0.9 0,1.3 0,17.9 0,35.8 0,53.7 0,0.4 0,0.9 0,1.3 -0.1,1.6 -0.9,2.5 -2.5,2.6 -3,0.1 -6,0 -9,0 -1.2,0 -1.9,-0.7 -2.6,-1.6 -2.7,-3.7 -5.4,-7.3 -8.1,-11 -5.3,-7.1 -10.6,-14.3 -15.9,-21.4 -0.3,-0.4 -0.6,-1 -1.2,-1.3 -0.4,0.7 -0.2,1.5 -0.2,2.2 0,9.5 0,19.1 0,28.6 0,4.1 -0.4,4.5 -4.5,4.5 -2.1,0 -4.3,0 -6.4,0 -2.4,0 -3.3,-0.9 -3.3,-3.4 0,-5.3 0,-10.7 0,-16 0,-12.7 0,-25.3 0,-38 0,-0.6 0,-1.1 0,-1.7 0.2,-1.4 1.1,-2.4 2.5,-2.4 3.1,-0.1 6.1,0 9.2,0 1.2,0 1.9,0.8 2.5,1.7 3,4 5.9,8 8.9,12 4.9,6.6 9.8,13.2 14.7,19.9 0.5,0.6 1,1.2 1.8,2.2 z"
         id="path11"
         inkscape:connector-curvature="0"
         style="fill:#00c300;stroke-width:0.71310294" /><path
         class="st3"
         d="m 303.7,243.5 c 0,-8.8 0,-17.6 0,-26.4 0,-0.6 0,-1.3 0.1,-1.9 0.2,-1.2 1,-2 2.2,-2.2 0.3,-0.1 0.7,0 1.1,0 11.5,0 23,0 34.5,0 0.3,0 0.6,0 0.9,0 1.6,0.1 2.5,1 2.6,2.6 0.1,3 0.1,6 0,9 -0.1,1.8 -1,2.5 -3,2.6 -7.2,0 -14.4,0 -21.5,0 -0.5,0 -1,0 -1.5,0 -1,-0.1 -1.2,0.4 -1.2,1.3 0,2.2 0,4.4 0,6.6 0,1.6 0,1.6 1.6,1.6 6.8,0 13.6,0 20.5,0 0.8,0 1.6,0 2.3,0 1.8,0.2 2.7,1 2.8,2.8 0.1,2.8 0.1,5.7 0,8.5 -0.1,1.8 -0.9,2.6 -2.8,2.8 -0.8,0.1 -1.7,0 -2.6,0 -6.8,0 -13.5,0 -20.3,0 -1.5,0 -1.6,0 -1.6,1.5 0,2.2 0.1,4.4 0,6.6 0,1.2 0.4,1.4 1.5,1.4 7.1,0 14.2,0.1 21.3,-0.1 4,-0.1 4.6,1.1 4.5,4.4 -0.1,2.2 0,4.4 0,6.6 -0.1,2.2 -0.9,3.1 -3.1,3.1 -11.7,0 -23.5,0 -35.2,0 -2.3,0 -3.1,-0.9 -3.1,-3.4 0,-9.1 0,-18.3 0,-27.4 z"
         id="path13"
         inkscape:connector-curvature="0"
         style="fill:#00c300;stroke-width:0.71310294" /><path
         class="st3"
         d="m 169.1,243.5 c 0,-8.7 0,-17.3 0,-26 0,-0.6 0,-1.3 0,-1.9 0.2,-1.8 1,-2.7 2.9,-2.7 2.8,0 5.7,-0.1 8.5,0 1.7,0 2.6,0.9 2.8,2.6 0.1,0.6 0,1.3 0,1.9 0,13.5 0,27 0,40.5 0,2.6 -0.2,2.3 2.3,2.3 6.9,0 13.8,0 20.7,0 0.6,0 1.1,0 1.7,0 1.5,0.1 2.4,0.9 2.4,2.4 0.1,3.1 0.1,6.1 0,9.2 0,1.6 -1,2.4 -2.6,2.5 -0.5,0 -1,0 -1.5,0 -11,0 -22,0 -33,0 -0.6,0 -1.1,0 -1.7,0 -1.4,-0.1 -2.2,-0.9 -2.4,-2.3 -0.1,-0.7 -0.1,-1.4 -0.1,-2.1 0,-8.8 0,-17.6 0,-26.4 z"
         id="path15"
         inkscape:connector-curvature="0"
         style="fill:#00c300;stroke-width:0.71310294" /><path
         class="st3"
         d="m 218.3,243.6 c 0,-8.8 0,-17.6 0,-26.4 0,-0.6 0,-1.1 0,-1.7 0.1,-1.6 0.9,-2.5 2.5,-2.5 3,-0.1 6,-0.1 9,0 1.5,0 2.4,0.9 2.6,2.3 0.1,0.6 0,1.3 0,1.9 0,17.6 0,35.3 0,52.9 0,0.4 0,0.9 0,1.3 -0.1,2.1 -1,2.9 -3.1,3 -2.6,0 -5.3,0 -7.9,0 -2.4,0 -3.2,-0.7 -3.2,-3.2 0.1,-9.2 0.1,-18.4 0.1,-27.6 z"
         id="path17"
         inkscape:connector-curvature="0"
         style="fill:#00c300;stroke-width:0.71310294" /></g></g></svg>